<?xml version="1.0" encoding="utf-8"?>
<!-- Generator: Adobe Illustrator 15.1.0, SVG Export Plug-In . SVG Version: 6.00 Build 0)  -->
<!DOCTYPE svg PUBLIC "-//W3C//DTD SVG 1.1//EN" "http://www.w3.org/Graphics/SVG/1.1/DTD/svg11.dtd">
<svg version="1.1" xmlns="http://www.w3.org/2000/svg" xmlns:xlink="http://www.w3.org/1999/xlink" x="0px" y="0px" width="600px"
	 height="150px" viewBox="0 0 600 150" enable-background="new 0 0 600 150" xml:space="preserve">
<g id="Layer_1" display="none">
	<g display="inline">
		<path fill="#FF8A89" d="M56.168,36.8c1.626-3.252,2.965-6.244,4.019-8.969c1.051-2.727,2.104-4.376,3.157-4.951
			c1.148-0.668,2.174-1.17,3.085-1.507c0.908-0.334,1.937-0.478,3.085-0.43c1.148,0.048,2.461,0.287,3.946,0.717
			c1.482,0.43,3.373,1.125,5.668,2.081c2.008,0.861,2.87,1.987,2.583,3.372c-0.287,1.388-1.076,2.871-2.368,4.448
			c-1.292,1.58-2.775,3.184-4.448,4.808c-1.675,1.628-2.942,3.111-3.803,4.45c-1.436,2.297-3.086,5.093-4.951,8.394
			c-1.866,3.3-3.852,6.841-5.956,10.621c-2.105,3.779-4.211,7.58-6.314,11.409c-2.106,3.824-4.043,7.389-5.813,10.689
			c-1.771,3.3-3.277,6.147-4.519,8.536c-1.245,2.396-2.106,4.021-2.583,4.881c-0.671,1.34-1.604,3.492-2.798,6.457
			c-1.198,2.967-2.249,6.1-3.157,9.4c-0.911,3.3-1.507,6.409-1.794,9.328c-0.287,2.917,0.144,4.949,1.292,6.098
			c0.861,0.764,2.343,1.101,4.449,1.004c2.103-0.096,4.567-0.407,7.391-0.932c2.82-0.528,5.884-1.125,9.184-1.793
			c3.3-0.671,6.576-1.244,9.83-1.724c1.529-0.191,3.276-0.501,5.238-0.933c1.96-0.432,3.897-0.839,5.812-1.22
			c1.913-0.381,3.731-0.668,5.453-0.86c1.723-0.192,3.061-0.145,4.019,0.144c1.338,0.384,2.056,1.293,2.152,2.725
			c0.094,1.437-0.384,2.943-1.435,4.521c-1.054,1.579-2.632,3.015-4.736,4.305c-2.105,1.291-4.735,1.983-7.893,2.083
			c-4.498,0.093-8.826,0.597-12.987,1.504c-4.162,0.909-8.108,1.816-11.838,2.729c-3.731,0.908-7.225,1.648-10.476,2.224
			c-3.253,0.573-6.267,0.573-9.041,0c-1.244-0.287-2.607-0.527-4.09-0.719c-1.484-0.191-2.87-0.552-4.161-1.076
			c-1.292-0.524-2.368-1.269-3.229-2.225c-0.861-0.956-1.292-2.344-1.292-4.16c0.096-2.965,0.574-6.221,1.435-9.758
			c0.861-3.54,1.913-7.009,3.157-10.404c1.242-3.394,2.487-6.577,3.731-9.542c1.243-2.964,2.296-5.456,3.157-7.464
			c1.816-4.593,3.921-9.422,6.313-14.493c2.391-5.069,4.831-10.138,7.319-15.21c2.487-5.069,4.952-10.045,7.391-14.925
			C51.792,45.552,54.063,41.01,56.168,36.8z"/>
		<path fill="#FF8A89" d="M116.453,87.169c2.487-1.436,4.162-2.08,5.022-1.936c0.861,0.141,1.195,0.644,1.005,1.505
			c-0.193,0.86-0.742,1.891-1.65,3.084c-0.911,1.199-1.891,2.132-2.942,2.8c-1.054,0.672-3.229,1.892-6.53,3.66
			c-3.3,1.772-6.96,3.636-10.978,5.597c-4.018,1.96-8.036,3.78-12.054,5.452c-4.019,1.676-7.272,2.798-9.759,3.373
			c-2.583,0.572-4.785,0.572-6.601,0c-1.818-0.575-3.277-1.484-4.376-2.729c-1.101-1.241-1.842-2.652-2.225-4.231
			c-0.381-1.581-0.431-3.085-0.144-4.521c0.287-1.437,0.838-3.205,1.65-5.31c0.812-2.104,1.866-4.305,3.157-6.601
			s2.773-4.592,4.448-6.889c1.673-2.296,3.467-4.353,5.382-6.172c1.815-1.721,3.563-3.105,5.237-4.161
			c1.673-1.052,3.205-1.816,4.593-2.296c1.385-0.477,2.629-0.788,3.73-0.932c1.1-0.145,2.032-0.165,2.799-0.072
			c0.955,0.096,2.008,0.551,3.156,1.363s2.225,1.816,3.229,3.014c1.004,1.198,1.865,2.559,2.583,4.089
			c0.717,1.53,1.17,3.015,1.363,4.447c0.093,1.436-0.312,2.824-1.22,4.164c-0.911,1.34-2.081,2.581-3.515,3.729
			c-1.436,1.147-2.992,2.18-4.665,3.087c-1.675,0.909-3.229,1.7-4.664,2.368s-2.798,1.34-4.09,2.009
			c-1.291,0.668-2.511,1.1-3.659,1.292c-1.147,0.191-2.273,0.096-3.372-0.288c-1.101-0.381-2.13-1.34-3.085-2.871
			c-0.287,0.383-0.599,0.935-0.933,1.651c-0.336,0.716-0.456,1.411-0.359,2.08c0.095,0.672,0.525,1.244,1.292,1.724
			c0.764,0.479,2.056,0.668,3.875,0.573c1.816-0.094,4.162-0.502,7.032-1.221c2.869-0.717,5.906-1.624,9.112-2.725
			c3.204-1.101,6.408-2.369,9.615-3.805C111.119,90.038,113.964,88.605,116.453,87.169z M93.78,78.845
			c-2.202,0.86-3.899,1.796-5.095,2.8c-1.197,1.005-2.511,2.369-3.946,4.089c0.668-0.188,1.458-0.477,2.368-0.86
			c0.908-0.381,1.84-0.884,2.798-1.508c0.956-0.62,1.794-1.313,2.511-2.08C93.134,80.521,93.587,79.705,93.78,78.845z"/>
		<path fill="#FF8A89" d="M145.296,60.191c0.956-0.192,2.152-0.265,3.587-0.216c1.435,0.051,2.821,0.239,4.162,0.576
			c1.338,0.335,2.605,0.86,3.803,1.576c1.195,0.719,2.081,1.652,2.654,2.799c1.148,2.2,1.579,3.897,1.292,5.093
			c-0.287,1.2-1.054,1.748-2.296,1.652c-0.574,0-1.029-0.24-1.363-0.719c-0.336-0.478-0.742-0.909-1.22-1.293
			c-0.48-0.38-1.148-0.572-2.009-0.572c-0.86,0-2.058,0.48-3.587,1.436c-1.628,0.956-3.493,2.44-5.596,4.448
			c-2.105,2.009-4.187,4.209-6.243,6.601c-2.058,2.394-3.923,4.761-5.596,7.103c-1.675,2.347-2.798,4.283-3.373,5.812
			c-0.573,1.532-0.86,2.943-0.86,4.235c0,1.29,0.38,2.32,1.147,3.085c0.765,0.768,1.959,1.196,3.588,1.292
			c1.626,0.097,3.731-0.288,6.314-1.147c2.678-0.864,5.978-2.152,9.902-3.876c3.921-1.721,8.011-3.706,12.27-5.956
			c4.256-2.246,8.514-4.613,12.771-7.102c4.256-2.488,8.108-4.929,11.552-7.32c1.339-0.86,2.104-0.765,2.296,0.288
			c0.19,1.055-0.767,2.967-2.87,5.74c-0.67,0.956-2.273,2.32-4.808,4.089c-2.536,1.771-5.549,3.756-9.04,5.956
			c-3.493,2.199-7.271,4.472-11.337,6.816c-4.067,2.345-7.988,4.496-11.767,6.457c-3.78,1.963-7.199,3.609-10.26,4.952
			c-3.063,1.337-5.359,2.101-6.889,2.296c-3.35,0.477-6.386-0.216-9.112-2.084c-2.726-1.863-4.617-4.136-5.668-6.813
			c-1.051-2.68-1.722-5.285-2.009-7.821s0.384-5.384,2.009-8.54c0.48-1.053,1.363-2.461,2.655-4.232
			c1.292-1.77,2.798-3.681,4.52-5.741c1.723-2.057,3.563-4.136,5.526-6.24c1.959-2.104,3.896-4.041,5.812-5.813
			c1.913-1.769,3.753-3.276,5.524-4.521C142.544,61.243,144.052,60.479,145.296,60.191z"/>
		<path fill="#FF8A89" d="M174.107,120.506c-1.791,0.256-4.572-2.719-6.235-3.741c-1.664-1.021-0.672-4.412-0.672-4.412
			c0.574-1.436,0.242-0.933,1.485-3.801c1.244-2.872,2.654-6.244,4.232-10.117c1.579-3.876,3.349-8.084,5.311-12.629
			c1.959-4.541,3.945-9.112,5.955-13.705c-1.531,0.195-2.87,0.359-4.018,0.504c-1.148,0.144-2.105,0.216-2.871,0.216
			c-1.244,0.096-2.271-0.432-3.085-1.58c-0.812-1.148-1.386-2.44-1.722-3.876c-0.334-1.433-0.381-2.818-0.143-4.161
			c0.24-1.337,0.838-2.199,1.793-2.58c0.862-0.384,1.53-0.647,2.01-0.792c0.477-0.144,0.955-0.237,1.435-0.288
			c0.478-0.045,1.027-0.045,1.65,0c0.621,0.051,1.554,0.026,2.798-0.07c0.574,0,1.579-0.023,3.013-0.072
			c1.436-0.048,3.108-0.12,5.022-0.216c2.009-4.304,3.994-8.324,5.956-12.053c1.959-3.731,3.754-6.984,5.382-9.76
			c6.026-9.851,10.691-16.956,13.991-21.31c3.3-4.352,5.812-6.386,7.534-6.099c0.861,0.193,1.912,0.599,3.157,1.219
			c1.242,0.624,2.439,1.291,3.587,2.009c1.148,0.718,2.127,1.459,2.941,2.224c0.813,0.768,1.267,1.341,1.364,1.722
			c0.093,0.862-0.194,1.414-0.862,1.65c-0.67,0.24-1.244,0.742-1.722,1.506c-0.861,1.245-2.034,2.824-3.516,4.736
			c-1.484,1.916-3.278,4.354-5.381,7.32c-2.105,2.964-4.521,6.553-7.248,10.761c-2.726,4.212-5.717,9.233-8.969,15.069
			c2.104-0.192,4.065-0.36,5.884-0.504c1.816-0.144,3.395-0.309,4.736-0.5c2.295-0.288,4.161-0.479,5.596-0.575
			c1.434-0.093,2.558-0.093,3.373,0c0.812,0.096,1.313,0.24,1.506,0.432c0.19,0.191,0.238,0.428,0.144,0.716
			c-0.097,0.288-0.48,0.887-1.148,1.793c-0.671,0.911-1.604,1.867-2.798,2.871c-1.198,1.004-2.705,2.008-4.521,3.013
			c-1.818,1.005-3.971,1.699-6.458,2.08c-1.628,0.288-3.54,0.601-5.74,0.936c-2.202,0.336-4.498,0.74-6.888,1.217
			c-0.861,1.628-1.747,3.279-2.655,4.952c-0.91,1.676-1.843,3.469-2.798,5.381c-4.975,9.855-8.897,17.989-11.768,24.395
			c-2.869,6.409-6.487,14.943-4.803,11.034C178.29,114.62,175.898,120.25,174.107,120.506z"/>
		<path fill="#FF8A89" d="M231.682,66.936c0.668,0.384,1.171,1.124,1.507,2.225c0.333,1.1-0.456,2.94-2.368,5.524
			c-0.958,1.34-2.152,3.253-3.588,5.74c-1.435,2.488-2.727,4.904-3.874,7.245c-1.148,2.348-1.962,4.284-2.44,5.813
			c-0.479,1.532-0.287,1.964,0.574,1.292c0.861-0.668,2.44-1.96,4.736-3.873c2.296-1.915,4.758-4.092,7.391-6.531
			c2.63-2.438,5.117-4.997,7.461-7.677c2.344-2.678,4.041-5.069,5.095-7.174c0.861-1.816,1.579-2.82,2.152-3.016
			c0.574-0.189,1.482-0.189,2.727,0c0.574,0.097,1.481,0.384,2.726,0.86c1.243,0.482,2.415,1.079,3.516,1.796
			c1.099,0.716,1.938,1.507,2.512,2.368c0.573,0.86,0.573,1.721,0,2.58c-0.575,0.863-1.532,2.42-2.871,4.665
			c-1.341,2.251-2.726,4.688-4.161,7.319c-1.435,2.633-2.798,5.165-4.09,7.605c-1.291,2.44-2.13,4.284-2.511,5.525
			c-0.479,1.244-0.767,2.415-0.861,3.516c-0.096,1.1-0.192,2.08-0.287,2.94c-0.096,0.863-0.24,1.604-0.43,2.224
			c-0.194,0.625-0.574,1.128-1.148,1.509c-1.148,0.764-2.273,0.933-3.372,0.503c-1.101-0.432-2.417-1.459-3.946-3.087
			c-0.767-0.765-1.292-1.77-1.579-3.014c-0.287-1.24-0.408-2.556-0.359-3.943c0.047-1.389,0.215-2.801,0.502-4.236
			c0.287-1.433,0.574-2.726,0.861-3.873c-2.009,1.532-3.802,3.037-5.381,4.521c-1.578,1.484-3.135,2.869-4.664,4.161
			c-1.532,1.292-3.063,2.439-4.592,3.443c-1.531,1.005-3.3,1.748-5.31,2.225c-2.009,0.479-3.637,0.313-4.878-0.503
			c-1.245-0.81-2.249-1.913-3.015-3.301c-0.766-1.385-1.313-2.773-1.65-4.161c-0.334-1.385-0.549-2.416-0.645-3.084
			c-0.095-0.669,0.358-2.129,1.363-4.377c1.004-2.248,2.2-4.712,3.587-7.392c1.386-2.677,2.726-5.237,4.019-7.678
			c1.291-2.439,2.224-4.185,2.798-5.236c1.051-2.104,1.912-3.42,2.583-3.947c0.668-0.525,1.866-0.837,3.588-0.933
			C226.707,65.407,229.48,65.883,231.682,66.936z"/>
		<path fill="#FF8A89" d="M305.584,79.133c0.381,3.352,0.453,5.86,0.215,7.533c-0.24,1.676-1.029,2.512-2.367,2.512
			c-0.67,0-1.507-0.144-2.512-0.432c-1.004-0.284-1.986-0.665-2.942-1.147c-0.957-0.478-1.746-1.098-2.368-1.865
			c-0.623-0.764-0.838-1.624-0.645-2.584c0.19-1.912-0.265-3.132-1.364-3.657c-1.101-0.524-2.417-0.407-3.946,0.357
			c-0.48,0.287-1.317,0.695-2.511,1.22c-1.198,0.527-2.465,1.127-3.803,1.796c-1.435,2.58-2.633,4.877-3.588,6.889
			c-0.957,2.008-1.722,3.968-2.296,5.881c-0.766,1.916-1.22,3.64-1.363,5.168c-0.144,1.532-0.431,2.965-0.862,4.305
			c-0.43,1.34-1.148,2.608-2.152,3.801c-1.005,1.196-2.751,2.465-5.238,3.804c-2.008,1.053-3.78,1.553-5.31,1.508
			c-1.531-0.051-2.677-1.076-3.443-3.087c-0.861-2.197-0.718-5.165,0.43-8.897c1.148-3.729,2.63-7.481,4.448-11.265
			c1.817-3.777,3.66-7.245,5.525-10.402c1.866-3.155,3.037-5.311,3.516-6.46c0.478-1.145,0.812-2.173,1.004-3.084
			c0.191-0.908,0.381-1.721,0.574-2.44c0.192-0.716,0.479-1.385,0.861-2.008c0.382-0.621,0.956-1.22,1.723-1.793
			c2.295-1.624,4.04-2.677,5.237-3.156c1.195-0.479,2.318,0.096,3.372,1.721c0.479,0.768,1.148,1.244,2.01,1.436
			c0.861,0.192,1.579,0.48,2.152,0.86c0.573,0.384,0.883,1.056,0.932,2.009c0.048,0.959-0.551,2.583-1.793,4.88
			c2.869-2.009,5.643-3.849,8.323-5.524c2.677-1.673,4.686-2.513,6.027-2.513c1.148,0,1.889,0.456,2.224,1.364
			c0.334,0.911,0.454,2.08,0.358,3.517c-0.096,1.433-0.239,3.013-0.43,4.732C305.391,75.832,305.391,77.508,305.584,79.133z"/>
		<path fill="#FF8A89" d="M359.54,87.169c2.485-1.436,4.161-2.08,5.022-1.936c0.861,0.141,1.195,0.644,1.005,1.505
			c-0.193,0.86-0.743,1.891-1.65,3.084c-0.911,1.199-1.892,2.132-2.942,2.8c-1.054,0.672-3.229,1.892-6.529,3.66
			c-3.301,1.772-6.96,3.636-10.977,5.597c-4.02,1.96-8.037,3.78-12.055,5.452c-4.019,1.676-7.271,2.798-9.759,3.373
			c-2.583,0.572-4.784,0.572-6.601,0c-1.818-0.575-3.278-1.484-4.377-2.729c-1.101-1.241-1.842-2.652-2.225-4.231
			c-0.381-1.581-0.431-3.085-0.144-4.521c0.288-1.437,0.839-3.205,1.65-5.31c0.812-2.104,1.866-4.305,3.157-6.601
			s2.773-4.592,4.448-6.889c1.673-2.296,3.466-4.353,5.382-6.172c1.815-1.721,3.563-3.105,5.237-4.161
			c1.673-1.052,3.204-1.816,4.593-2.296c1.385-0.477,2.629-0.788,3.73-0.932c1.099-0.145,2.031-0.165,2.799-0.072
			c0.955,0.096,2.008,0.551,3.156,1.363s2.225,1.816,3.229,3.014c1.005,1.198,1.865,2.559,2.584,4.089
			c0.717,1.53,1.17,3.015,1.363,4.447c0.094,1.436-0.313,2.824-1.22,4.164c-0.911,1.34-2.081,2.581-3.516,3.729
			c-1.435,1.147-2.992,2.18-4.665,3.087c-1.675,0.909-3.228,1.7-4.663,2.368c-1.435,0.668-2.798,1.34-4.09,2.009
			c-1.292,0.668-2.512,1.1-3.659,1.292c-1.147,0.191-2.273,0.096-3.373-0.288c-1.1-0.381-2.129-1.34-3.084-2.871
			c-0.287,0.383-0.6,0.935-0.934,1.651c-0.336,0.716-0.455,1.411-0.358,2.08c0.094,0.672,0.524,1.244,1.292,1.724
			c0.764,0.479,2.056,0.668,3.873,0.573c1.817-0.094,4.162-0.502,7.033-1.221c2.869-0.717,5.906-1.624,9.111-2.725
			c3.204-1.101,6.408-2.369,9.615-3.805C354.205,90.038,357.051,88.605,359.54,87.169z M336.867,78.845
			c-2.203,0.86-3.9,1.796-5.095,2.8c-1.197,1.005-2.512,2.369-3.946,4.089c0.668-0.188,1.457-0.477,2.367-0.86
			c0.908-0.381,1.841-0.884,2.799-1.508c0.955-0.62,1.794-1.313,2.511-2.08C336.221,80.521,336.674,79.705,336.867,78.845z"/>
		<path fill="#FF8A89" d="M404.6,15.562c1.052,0.575,1.938,1.532,2.653,2.871c0.718,1.34,0.837,2.392,0.36,3.157
			c-0.193,0.288-1.054,1.748-2.584,4.376c-1.53,2.633-3.443,6.027-5.739,10.188c-2.296,4.164-4.857,8.852-7.679,14.065
			c-2.822,5.216-5.574,10.474-8.25,15.786c-2.68,5.309-5.145,10.452-7.391,15.425c-2.249,4.977-3.995,9.281-5.237,12.914
			c2.582-3.061,5.74-6.121,9.471-9.182s7.484-5.813,11.265-8.252c3.777-2.44,7.319-4.401,10.619-5.885
			c3.301-1.48,5.812-2.174,7.534-2.081c3.348,0.193,5.644,1.437,6.888,3.732c1.243,2.296,0.955,5.501-0.861,9.614
			c-1.914,4.115-3.063,7.104-3.443,8.968c-0.384,1.867,0.525,2.464,2.728,1.796c1.05-0.288,2.46-0.884,4.231-1.796
			c1.771-0.907,3.611-1.912,5.524-3.012c1.913-1.101,3.805-2.2,5.669-3.301c1.866-1.101,3.42-2.08,4.664-2.943
			c1.242-0.765,2.031-0.905,2.369-0.43c0.334,0.48,0.236,1.365-0.288,2.653c-0.526,1.292-1.46,2.872-2.799,4.736
			c-1.34,1.868-3.109,3.804-5.309,5.813c-2.202,2.008-4.284,3.853-6.242,5.524c-1.962,1.676-3.853,3.136-5.669,4.377
			c-1.818,1.244-3.638,2.131-5.452,2.655c-1.82,0.528-3.732,0.645-5.741,0.36c-2.01-0.288-3.565-1.244-4.664-2.872
			c-1.101-1.624-1.818-3.537-2.152-5.74c-0.336-2.2-0.265-4.565,0.216-7.102c0.477-2.536,1.338-4.856,2.582-6.96
			c-0.573-0.381-1.699-0.24-3.371,0.428c-1.675,0.672-3.659,1.724-5.955,3.16c-2.297,1.433-4.736,3.205-7.319,5.309
			c-2.583,2.104-5.071,4.448-7.462,7.032c-4.785,5.165-8.778,9.277-11.982,12.342c-3.207,3.061-5.812,4.493-7.821,4.305
			c-1.052-0.097-2.009-0.816-2.869-2.153c-0.861-1.343-1.555-2.871-2.081-4.592c-0.524-1.724-0.812-3.469-0.862-5.239
			c-0.046-1.77,0.217-3.179,0.79-4.233c0.384-0.668,1.269-2.341,2.655-5.021c1.388-2.677,3.063-5.909,5.022-9.688
			c1.959-3.777,4.065-7.893,6.314-12.342c2.246-4.448,4.448-8.752,6.601-12.913c2.152-4.161,4.161-7.988,6.027-11.481
			c1.864-3.492,3.323-6.193,4.376-8.109c1.627-2.868,3.157-5.713,4.593-8.537c1.435-2.821,2.702-5.429,3.802-7.822
			c1.1-2.389,2.009-4.398,2.727-6.026c0.718-1.626,1.171-2.727,1.364-3.3c0.477-1.053,1.291-1.794,2.438-2.225
			C400.007,13.481,401.919,14.033,404.6,15.562z"/>
		<path fill="#FF8A89" d="M454.393,68.084c0.574,0.479,1.626,1.34,3.156,2.583c1.53,1.244,3.037,2.821,4.521,4.734
			c1.482,1.915,2.656,4.115,3.517,6.601c0.86,2.49,0.908,5.167,0.145,8.036c-0.769,2.871-2.153,5.524-4.163,7.965
			c-2.009,2.44-4.305,4.499-6.887,6.172c-2.585,1.673-5.288,2.869-8.109,3.585c-2.822,0.72-5.381,0.84-7.677,0.359
			c-2.296-0.476-4.067-1.479-5.311-3.012c-1.244-1.528-2.057-3.276-2.438-5.236c-0.383-1.961-0.36-3.925,0.07-5.885
			c0.432-1.96,1.123-3.612,2.081-4.952c0.955-1.337,2.152-2.941,3.587-4.809c1.436-1.864,2.965-3.681,4.592-5.452
			c1.627-1.77,3.229-3.301,4.809-4.593c1.579-1.289,3.035-2.08,4.377-2.364l1.577-0.432c-0.095-0.192-0.167-0.549-0.216-1.077
			c-0.049-0.523,0-1.027,0.145-1.508c0.144-0.476,0.406-0.813,0.79-1.004C453.338,67.606,453.818,67.703,454.393,68.084z
			 M445.065,94.202c-0.098,0.479,0.142,0.669,0.716,0.572c0.574-0.093,1.314-0.359,2.225-0.788c0.908-0.432,1.842-1.028,2.798-1.796
			c0.957-0.765,1.771-1.624,2.44-2.581c0.479-0.668,0.862-1.628,1.148-2.871c0.288-1.241,0.43-2.581,0.43-4.017
			c-1.053,0.956-2.13,2.008-3.229,3.155c-1.101,1.148-2.129,2.297-3.084,3.445c-0.958,1.147-1.748,2.151-2.368,3.012
			C445.518,93.195,445.16,93.818,445.065,94.202z M491.561,65.5c0.573,0.479,1.625,1.22,3.156,2.224
			c1.529,1.004,3.036,2.32,4.521,3.948c1.481,1.628,2.652,3.637,3.516,6.025c0.861,2.392,0.909,5.216,0.145,8.468
			c-0.768,3.253-2.155,6.337-4.163,9.254c-2.01,2.92-4.305,5.408-6.889,7.464c-2.581,2.057-5.285,3.564-8.105,4.521
			c-2.824,0.956-5.385,1.148-7.681,0.572c-2.488-0.381-4.353-1.528-5.596-3.443c-1.244-1.913-2.033-4.064-2.366-6.457
			c-0.338-2.39-0.267-4.781,0.213-7.174c0.48-2.392,1.196-4.353,2.153-5.884c0.956-1.529,2.154-3.133,3.587-4.809
			c1.437-1.673,2.966-3.229,4.593-4.665c1.625-1.436,3.229-2.676,4.809-3.728c1.576-1.053,3.036-1.725,4.376-2.013l1.58-0.572
			c-0.099-0.191-0.171-0.575-0.216-1.147c-0.051-0.576,0-1.124,0.144-1.651c0.141-0.525,0.405-0.933,0.788-1.221
			C490.505,64.927,490.984,65.023,491.561,65.5z M480.94,96.066c0.288,0.479,0.932,0.6,1.936,0.359
			c1.005-0.239,2.104-0.765,3.301-1.579c1.196-0.813,2.344-1.913,3.444-3.301c1.1-1.385,1.939-3.036,2.513-4.951
			c0.095-0.381,0.236-0.789,0.432-1.221c0.188-0.429,0.284-0.908,0.284-1.433s-0.097-1.172-0.284-1.939
			c-0.195-0.765-0.576-1.721-1.149-2.869c-1.055,1.055-2.392,2.296-4.02,3.732c-1.628,1.433-3.084,2.94-4.376,4.52
			c-1.292,1.577-2.224,3.109-2.797,4.593C479.647,93.462,479.888,94.825,480.94,96.066z"/>
	</g>
	<text transform="matrix(1 0 0 1 107.6313 136.748)" display="inline" fill="#1B2260" font-family="'BigJohn'" font-size="15.3478">Take your time back from blackboard</text>
	<path display="inline" fill="#FF8A89" d="M522.533,81.498l-0.407,1.327c-2.684,6.328-11.025,25.975-12.896,29.667
		c-1.869,3.688-3.617,5.438-5.251,5.248c-1.054-0.096-1.915-0.72-2.589-1.869c-0.668-1.15-1.172-2.518-1.509-4.1
		c-0.336-1.582-0.456-3.188-0.359-4.817c0.096-1.629,0.432-2.971,1.007-4.026c0.384-0.672,1.199-2.277,2.444-4.82
		c1.248-2.538,2.778-5.654,4.602-9.348c1.821-3.69,3.812-7.766,5.97-12.225c2.157-4.459,4.338-8.939,6.544-13.448
		c2.205-4.506,4.336-8.867,6.399-13.088c2.061-4.217,3.906-7.911,5.537-11.073c2.971-5.848,5.057-10.881,6.256-15.102
		c1.197-4.217,2.037-6.854,2.519-7.91c0.478-1.056,1.582-1.773,3.307-2.159c1.726-0.381,3.977,0.195,6.762,1.727
		c1.052,0.576,1.941,1.535,2.66,2.878c0.718,1.343,0.836,2.396,0.358,3.162c-0.191,0.195-0.861,1.295-2.013,3.31
		c-1.151,2.015-2.613,4.602-4.388,7.767c-1.774,3.163-3.787,6.759-6.041,10.785c-2.253,4.029-4.508,8.223-6.76,12.584
		c-2.253,4.365-4.456,8.751-6.614,13.161C525.913,73.54,524.066,77.664,522.533,81.498"/>
	<path display="inline" fill="#FF8A89" d="M572.701,60.952c0,0-28.014,10.855-38.568,21.409
		c-10.556,10.555-2.583,17.008-2.583,17.008c7.745,8.655,24.601-1.669,24.601-1.669c-6.833-0.458-10.175-6.379-10.175-6.379
		c9.719,4.252,25.056-3.036,25.056-3.036c-4.705,7.592-13.666,13.666-13.666,13.666s-20.043,15.943-32.8,0.91
		c-12.755-15.032,4.101-27.484,4.101-27.484l39.023-27.333c0,0,5.011-3.947,9.72-4.403
		C582.117,43.186,577.258,59.888,572.701,60.952z"/>
</g>
<g id="Layer_2">
	<g>
		<path fill="#FF8A89" d="M107.937,24.122c1.223-0.375,2.705-0.541,4.449-0.494c1.741,0.048,3.507,0.306,5.297,0.777
			c1.787,0.472,3.412,1.178,4.873,2.118c1.46,0.943,2.566,2.119,3.32,3.532c1.505,2.825,2.071,4.993,1.695,6.498
			c-0.377,1.509-1.366,2.214-2.967,2.12c-0.755-0.093-1.507-0.4-2.26-0.919c-0.755-0.517-1.648-1.06-2.684-1.624
			c-1.037-0.565-2.284-0.99-3.743-1.271c-1.46-0.283-3.319-0.234-5.581,0.141c-7.344,1.413-14.361,3.885-21.046,7.416
			c-6.688,3.533-12.854,7.84-18.505,12.927c-5.65,5.084-10.689,10.829-15.114,17.233c-4.428,6.405-8.006,13.187-10.736,20.34
			c-0.943,2.449-1.507,5.111-1.695,7.981c-0.189,2.874-0.025,5.629,0.495,8.265c0.516,2.638,1.388,4.969,2.613,6.992
			c1.223,2.025,2.826,3.461,4.803,4.308c2.07,0.848,4.471,1.296,7.205,1.343c2.73,0.049,5.46-0.163,8.192-0.637
			c2.731-0.469,5.298-1.176,7.698-2.118c2.401-0.94,4.355-1.928,5.864-2.966c1.882-1.318,3.107-1.929,3.672-1.838
			c0.563,0.097,0.657,0.661,0.283,1.696c-0.378,1.037-1.155,2.4-2.331,4.097c-1.179,1.693-2.637,3.461-4.379,5.297
			c-1.744,1.836-3.698,3.602-5.863,5.298c-2.168,1.694-4.379,3.012-6.638,3.955c-1.979,0.847-4.167,1.482-6.569,1.906
			s-4.781,0.588-7.133,0.495c-2.355-0.096-4.591-0.473-6.71-1.131c-2.119-0.659-3.885-1.553-5.297-2.684
			c-1.225-0.944-2.826-2.284-4.803-4.026c-1.978-1.74-3.697-4.118-5.156-7.133c-1.459-3.012-2.376-6.826-2.754-11.441
			c-0.375-4.613,0.424-10.313,2.401-17.093c2.261-8.004,5.955-15.655,11.089-22.955c5.131-7.297,11.206-13.96,18.223-19.988
			c7.015-6.026,14.783-11.3,23.308-15.821C89.972,30.197,98.8,26.665,107.937,24.122z"/>
	</g>
	<g>
		<path fill="#1B2260" d="M91.289,134.932l5.273-11.3h1.341l5.318,11.3h-2.967l-0.692-1.477h-4.625l-0.678,1.477H91.289z
			 M96.095,130.954h2.304l-1.144-2.486L96.095,130.954z"/>
		<path fill="#1B2260" d="M113.036,134.932l-5.333-5.348v5.348h-2.968v-11.3h1.205l5.349,5.333v-5.333h2.968v11.3H113.036z"/>
		<path fill="#1B2260" d="M126.289,130.427c0,0.814,0.663,1.477,1.476,1.477c0.813,0,1.477-0.662,1.477-1.477v-6.795h2.982v6.842
			c0,2.484-2.004,4.458-4.459,4.458c-2.485,0-4.46-1.974-4.46-4.458v-6.842h2.984V130.427z"/>
		<path fill="#1B2260" d="M142.792,134.932l-5.333-5.348v5.348h-2.968v-11.3h1.205l5.349,5.333v-5.333h2.968v11.3H142.792z"/>
		<path fill="#1B2260" d="M146.294,123.632h7.081v2.441h-4.113v1.839h3.631v2.515h-3.631v4.505h-2.968V123.632z"/>
		<path fill="#1B2260" d="M154.299,134.932l5.272-11.3h1.341l5.318,11.3h-2.968l-0.692-1.477h-4.625l-0.678,1.477H154.299z
			 M159.105,130.954h2.305l-1.145-2.486L159.105,130.954z"/>
		<path fill="#1B2260" d="M167.729,123.632h2.968v11.3h-2.968V123.632z"/>
		<path fill="#1B2260" d="M179.528,134.932l-1.747-2.999h-1.838v2.999h-2.968v-11.3h4.76c2.29,0,4.159,1.869,4.159,4.159
			c0,1.204-0.527,2.29-1.342,3.044l2.396,4.097H179.528z M175.943,129.371h1.838c0.903,0,1.627-0.705,1.627-1.61
			c0-0.902-0.724-1.627-1.627-1.627h-1.838V129.371z"/>
		<path fill="#1B2260" d="M190.445,134.932l5.273-11.3h1.341l5.317,11.3h-2.968l-0.692-1.477h-4.625l-0.678,1.477H190.445z
			 M195.252,130.954h2.305l-1.145-2.486L195.252,130.954z"/>
		<path fill="#1B2260" d="M203.892,123.632h4.188c3.117,0,5.649,2.53,5.649,5.65c0,3.119-2.532,5.649-5.649,5.649h-4.188V123.632z
			 M206.844,131.979h1.25c1.477,0,2.683-1.206,2.683-2.681c0-1.463-1.206-2.668-2.683-2.668h-1.25V131.979z"/>
		<path fill="#1B2260" d="M226.148,123.617l-5.258,11.314h-1.355l-5.273-11.314h2.983l2.968,6.434l2.983-6.434H226.148z"/>
		<path fill="#1B2260" d="M225.643,134.932l5.273-11.3h1.34l5.318,11.3h-2.967l-0.693-1.477h-4.625l-0.678,1.477H225.643z
			 M230.449,130.954h2.305l-1.145-2.486L230.449,130.954z"/>
		<path fill="#1B2260" d="M247.39,134.932l-5.333-5.348v5.348h-2.968v-11.3h1.205l5.349,5.333v-5.333h2.967v11.3H247.39z"/>
		<path fill="#1B2260" d="M250.65,123.617h8.904v2.953h-2.998v8.361h-2.968v-8.361h-2.938V123.617z"/>
		<path fill="#1B2260" d="M260.025,134.932l5.273-11.3h1.342l5.317,11.3h-2.968l-0.693-1.477h-4.625l-0.678,1.477H260.025z
			 M264.832,130.954h2.305l-1.145-2.486L264.832,130.954z"/>
		<path fill="#1B2260" d="M283.912,128.859v0.423c0,3.119-2.53,5.649-5.649,5.649c-3.118,0-5.635-2.53-5.635-5.649
			c0-3.12,2.517-5.65,5.635-5.65c1.553,0,2.954,0.633,3.977,1.644l-2.094,2.078c-0.481-0.452-1.114-0.752-1.883-0.752
			c-1.416,0-2.667,1.129-2.667,2.681c0,1.553,1.281,2.683,2.667,2.683c0.889,0,1.718-0.438,2.186-1.116h-2.186v-1.989H283.912z"/>
		<path fill="#1B2260" d="M285.547,123.632h7.021v2.456h-4.054v1.839h3.586v2.5h-3.586v2.08h4.054v2.425h-7.021V123.632z"/>
		<path fill="#1B2260" d="M301.479,123.632h7.08v2.441h-4.113v1.839h3.631v2.515h-3.631v4.505h-2.967V123.632z"/>
		<path fill="#1B2260" d="M316.098,123.632c3.119,0,5.649,2.547,5.649,5.666c0,3.118-2.53,5.634-5.649,5.634
			c-3.118,0-5.634-2.516-5.634-5.634C310.464,126.179,312.979,123.632,316.098,123.632z M316.098,126.585
			c-1.476,0-2.682,1.206-2.682,2.697c0,1.476,1.206,2.696,2.682,2.696c1.492,0,2.697-1.221,2.697-2.696
			C318.795,127.791,317.59,126.585,316.098,126.585z"/>
		<path fill="#1B2260" d="M330.373,134.932l-1.747-2.999h-1.84v2.999h-2.967v-11.3h4.759c2.292,0,4.159,1.869,4.159,4.159
			c0,1.204-0.528,2.29-1.34,3.044l2.395,4.097H330.373z M326.786,129.371h1.84c0.903,0,1.625-0.705,1.625-1.61
			c0-0.902-0.722-1.627-1.625-1.627h-1.84V129.371z"/>
		<path fill="#1B2260" d="M341.289,134.932l5.273-11.3h1.341l5.319,11.3h-2.969l-0.692-1.477h-4.626l-0.678,1.477H341.289z
			 M346.095,130.954h2.307l-1.146-2.486L346.095,130.954z"/>
		<path fill="#1B2260" d="M363.036,134.932l-5.333-5.348v5.348h-2.968v-11.3h1.205l5.349,5.333v-5.333h2.968v11.3H363.036z"/>
		<path fill="#1B2260" d="M376.289,130.427c0,0.814,0.663,1.477,1.478,1.477c0.813,0,1.476-0.662,1.476-1.477v-6.795h2.983v6.842
			c0,2.484-2.005,4.458-4.459,4.458c-2.486,0-4.46-1.974-4.46-4.458v-6.842h2.982V130.427z"/>
		<path fill="#1B2260" d="M392.793,134.932l-5.334-5.348v5.348h-2.968v-11.3h1.207l5.348,5.333v-5.333h2.968v11.3H392.793z"/>
		<path fill="#1B2260" d="M396.294,123.632h7.081v2.441h-4.113v1.839h3.631v2.515h-3.631v4.505h-2.968V123.632z"/>
		<path fill="#1B2260" d="M404.3,134.932l5.272-11.3h1.342l5.318,11.3h-2.967l-0.693-1.477h-4.627l-0.678,1.477H404.3z
			 M409.106,130.954h2.306l-1.145-2.486L409.106,130.954z"/>
		<path fill="#1B2260" d="M417.731,123.632h2.968v11.3h-2.968V123.632z"/>
		<path fill="#1B2260" d="M429.53,134.932l-1.748-2.999h-1.839v2.999h-2.968v-11.3h4.761c2.29,0,4.159,1.869,4.159,4.159
			c0,1.204-0.528,2.29-1.341,3.044l2.395,4.097H429.53z M425.943,129.371h1.839c0.904,0,1.627-0.705,1.627-1.61
			c0-0.902-0.723-1.627-1.627-1.627h-1.839V129.371z"/>
		<path fill="#1B2260" d="M449.426,130.908l-1.866,4.023h-2.142l-5.213-11.3h3.255l3.194,6.915l2.153-4.699h1.252l2.152,4.699
			l3.21-6.915h3.254l-5.228,11.3h-2.139L449.426,130.908z"/>
		<path fill="#1B2260" d="M464.939,123.632c3.117,0,5.649,2.547,5.649,5.666c0,3.118-2.532,5.634-5.649,5.634
			c-3.12,0-5.636-2.516-5.636-5.634C459.304,126.179,461.819,123.632,464.939,123.632z M464.939,126.585
			c-1.477,0-2.683,1.206-2.683,2.697c0,1.476,1.206,2.696,2.683,2.696c1.49,0,2.697-1.221,2.697-2.696
			C467.637,127.791,466.43,126.585,464.939,126.585z"/>
		<path fill="#1B2260" d="M479.213,134.932l-1.747-2.999h-1.838v2.999h-2.968v-11.3h4.761c2.291,0,4.159,1.869,4.159,4.159
			c0,1.204-0.528,2.29-1.342,3.044l2.396,4.097H479.213z M475.628,129.371h1.838c0.905,0,1.627-0.705,1.627-1.61
			c0-0.902-0.722-1.627-1.627-1.627h-1.838V129.371z"/>
		<path fill="#1B2260" d="M484.101,123.632h2.968v8.315h4.068v2.984h-7.036V123.632z"/>
		<path fill="#1B2260" d="M493.267,123.632h4.188c3.118,0,5.649,2.53,5.649,5.65c0,3.119-2.531,5.649-5.649,5.649h-4.188V123.632z
			 M496.219,131.979h1.25c1.477,0,2.682-1.206,2.682-2.681c0-1.463-1.205-2.668-2.682-2.668h-1.25V131.979z"/>
	</g>
	<path fill="#FF8A89" d="M117.651,65.877c0.566,0.472,1.601,1.32,3.107,2.543c1.505,1.225,2.989,2.778,4.45,4.661
		c1.459,1.884,2.613,4.051,3.461,6.498c0.847,2.449,0.894,5.086,0.141,7.909c-0.755,2.827-2.119,5.439-4.096,7.841
		c-1.977,2.402-4.239,4.428-6.781,6.074c-2.542,1.648-5.205,2.825-7.981,3.532c-2.779,0.705-5.297,0.823-7.558,0.354
		c-2.26-0.472-4.003-1.461-5.226-2.968c-1.226-1.504-2.024-3.225-2.402-5.156c-0.375-1.93-0.352-3.861,0.072-5.791
		c0.423-1.928,1.104-3.553,2.047-4.874c0.941-1.317,2.119-2.896,3.532-4.732c1.412-1.837,2.917-3.625,4.521-5.366
		c1.599-1.743,3.178-3.25,4.732-4.521s2.988-2.049,4.308-2.332c0.282-0.092,0.541-0.163,0.777-0.211
		c0.234-0.046,0.493-0.117,0.776-0.212c-0.377-0.658-0.896-1.223-1.553-1.695c-1.129-0.941-1.672-1.625-1.624-2.048
		c0.046-0.424,0.353-0.657,0.918-0.707c0.565-0.045,1.292,0.05,2.189,0.283C116.356,65.195,117.086,65.501,117.651,65.877z
		 M108.47,91.587c-0.095,0.471,0.142,0.659,0.707,0.563c0.565-0.093,1.294-0.352,2.189-0.776c0.894-0.423,1.813-1.013,2.755-1.766
		c0.939-0.753,1.741-1.601,2.4-2.543c0.47-0.658,0.848-1.6,1.13-2.824c0.283-1.225,0.425-2.543,0.425-3.957
		c-1.038,0.942-2.097,1.978-3.179,3.108c-1.084,1.13-2.097,2.261-3.037,3.392c-0.942,1.128-1.719,2.117-2.332,2.966
		C108.916,90.597,108.562,91.209,108.47,91.587z"/>
	<path fill="#FF8A89" d="M154.943,64.748c0.658,0.376,1.152,1.107,1.484,2.189c0.329,1.083-0.448,2.895-2.331,5.438
		c-0.943,1.319-2.119,3.202-3.533,5.65c-1.411,2.449-2.684,4.826-3.813,7.132c-1.131,2.311-1.932,4.217-2.402,5.722
		c-0.473,1.508-0.283,1.932,0.565,1.271c0.848-0.658,2.402-1.929,4.661-3.814c2.26-1.881,4.684-4.025,7.275-6.426
		c2.589-2.401,5.037-4.921,7.346-7.558c2.306-2.636,3.977-4.99,5.013-7.063c0.848-1.788,1.554-2.776,2.12-2.966
		c0.565-0.188,1.458-0.188,2.684,0c0.565,0.095,1.459,0.377,2.685,0.847c1.223,0.472,2.377,1.059,3.46,1.767
		c1.081,0.706,1.907,1.483,2.473,2.33c0.563,0.847,0.563,1.695,0,2.542c-0.565,0.847-1.508,2.378-2.825,4.592
		c-1.319,2.212-2.684,4.613-4.098,7.203c-1.412,2.591-2.753,5.085-4.025,7.487c-1.271,2.401-2.097,4.217-2.473,5.438
		c-0.472,1.226-0.754,2.38-0.846,3.462c-0.095,1.083-0.19,2.047-0.283,2.895c-0.095,0.849-0.237,1.578-0.424,2.191
		c-0.19,0.611-0.565,1.106-1.129,1.482c-1.131,0.752-2.24,0.916-3.32,0.493c-1.084-0.422-2.379-1.434-3.885-3.036
		c-0.755-0.753-1.271-1.742-1.554-2.967c-0.282-1.224-0.402-2.519-0.353-3.885c0.045-1.364,0.211-2.754,0.494-4.167
		c0.283-1.411,0.566-2.683,0.848-3.813c-1.978,1.507-3.743,2.99-5.297,4.449c-1.554,1.463-3.085,2.826-4.591,4.098
		c-1.508,1.271-3.015,2.4-4.521,3.389c-1.508,0.989-3.248,1.721-5.227,2.189c-1.978,0.472-3.58,0.307-4.802-0.494
		c-1.225-0.8-2.214-1.883-2.966-3.249c-0.755-1.364-1.293-2.73-1.625-4.098c-0.329-1.361-0.54-2.374-0.635-3.036
		c-0.092-0.657,0.353-2.095,1.343-4.309c0.988-2.211,2.165-4.636,3.531-7.273c1.364-2.636,2.685-5.157,3.955-7.558
		c1.271-2.401,2.189-4.118,2.754-5.156c1.036-2.07,1.884-3.366,2.542-3.885c0.658-0.516,1.837-0.823,3.533-0.918
		C150.045,63.242,152.776,63.711,154.943,64.748z"/>
	<path fill="#FF8A89" d="M227.689,76.754c0.375,3.297,0.445,5.77,0.212,7.416c-0.237,1.649-1.014,2.472-2.331,2.472
		c-0.66,0-1.482-0.142-2.472-0.424s-1.955-0.658-2.896-1.129c-0.941-0.472-1.72-1.083-2.33-1.837
		c-0.614-0.755-0.825-1.603-0.636-2.544c0.188-1.883-0.26-3.083-1.343-3.601c-1.083-0.517-2.378-0.4-3.884,0.353
		c-0.473,0.283-1.295,0.683-2.472,1.2c-1.179,0.519-2.427,1.109-3.744,1.767c-1.412,2.542-2.591,4.804-3.53,6.779
		c-0.943,1.979-1.696,3.908-2.262,5.792c-0.754,1.887-1.199,3.58-1.342,5.086c-0.141,1.508-0.423,2.921-0.846,4.237
		c-0.426,1.32-1.131,2.566-2.12,3.745c-0.988,1.174-2.708,2.423-5.155,3.741c-1.979,1.036-3.723,1.53-5.227,1.483
		c-1.508-0.049-2.637-1.06-3.391-3.037c-0.848-2.165-0.706-5.085,0.424-8.758s2.59-7.368,4.379-11.089
		c1.788-3.719,3.602-7.133,5.438-10.241c1.836-3.107,2.989-5.227,3.46-6.356c0.471-1.13,0.8-2.141,0.989-3.038
		c0.188-0.894,0.376-1.695,0.565-2.401c0.188-0.707,0.471-1.363,0.848-1.979c0.375-0.611,0.939-1.2,1.695-1.765
		c2.26-1.6,3.977-2.636,5.154-3.108c1.178-0.47,2.283,0.095,3.321,1.696c0.469,0.755,1.13,1.225,1.978,1.413
		c0.848,0.189,1.553,0.472,2.119,0.847c0.564,0.377,0.869,1.038,0.917,1.978c0.047,0.943-0.542,2.542-1.766,4.804
		c2.825-1.979,5.556-3.79,8.194-5.439c2.635-1.646,4.612-2.472,5.932-2.472c1.13,0,1.858,0.448,2.189,1.342
		c0.33,0.896,0.446,2.048,0.354,3.461c-0.095,1.412-0.236,2.966-0.424,4.661C227.5,73.504,227.5,75.153,227.689,76.754z"/>
	<path fill="#FF8A89" d="M262.721,73.222c2.636-1.223,5.086-2.119,7.345-2.683c2.261-0.565,4.144-0.919,5.651-1.06
		c1.505-0.142,2.493-0.071,2.966,0.212c0.47,0.282,0.235,0.612-0.707,0.988c-1.412,0.66-3.131,1.553-5.155,2.684
		c-2.025,1.129-4.216,2.424-6.568,3.884c-2.354,1.461-4.732,2.967-7.133,4.52c-2.401,1.555-4.641,3.085-6.711,4.592
		c0.094,0.564,0.164,1.129,0.213,1.695c0.046,0.564,0.163,1.13,0.352,1.695c0.849,4.05,0.871,7.862,0.072,11.441
		c-0.801,3.581-2.521,6.355-5.156,8.334c-2.45,1.884-5.11,2.776-7.98,2.686c-2.875-0.097-5.205-0.944-6.992-2.544
		c-0.756-0.565-1.436-1.296-2.05-2.191c-0.61-0.895-1.2-1.575-1.766-2.047c-0.282-0.282-0.47-0.776-0.565-1.482
		c-0.092-0.707-0.045-1.531,0.143-2.473c0.189-0.94,0.473-1.953,0.848-3.036c0.377-1.083,0.847-2.095,1.412-3.038
		c1.035-1.696,2.543-3.437,4.521-5.226c1.978-1.787,4.33-3.625,7.063-5.509c-0.191-0.753-0.449-1.506-0.777-2.262
		c-0.331-0.754-0.59-1.504-0.777-2.26c-1.32-4.048-1.32-7.673,0-10.876c1.317-3.201,2.871-5.697,4.662-7.487
		c1.317-1.317,2.848-2.331,4.59-3.037c1.742-0.707,3.413-1.177,5.016-1.413c1.6-0.233,3.083-0.281,4.448-0.141
		c1.364,0.141,2.331,0.353,2.897,0.635c1.13,0.565,1.766,1.462,1.906,2.684c0.141,1.225-0.023,1.978-0.494,2.26
		c-0.377,0.377-0.707,0.589-0.989,0.635c-0.282,0.049-0.755,0.071-1.412,0.071c-3.58,0-6.405,2.497-8.476,7.487
		c-0.942,2.167-1.414,4.898-1.414,8.193c1.885-1.13,3.791-2.212,5.723-3.25C259.353,74.871,261.118,73.977,262.721,73.222z
		 M244.356,101.05c0.376-1.131,0.446-2.424,0.212-3.885c-0.235-1.46-0.447-3.129-0.635-5.015c-0.19,0.096-0.424,0.282-0.706,0.565
		c-1.696,1.32-3.037,2.593-4.027,3.813c-0.988,1.226-1.694,2.332-2.117,3.32c-0.425,0.989-0.66,1.836-0.707,2.542
		c-0.048,0.706-0.07,1.25-0.07,1.625c0.093,0.756,0.517,1.412,1.271,1.977c1.131,0,2.402-0.374,3.814-1.129
		C242.803,104.111,243.793,102.841,244.356,101.05z"/>
	<path fill="#FF8A89" d="M317.669,84.665c2.446-1.413,4.095-2.05,4.942-1.908c0.849,0.142,1.178,0.636,0.989,1.484
		c-0.189,0.848-0.729,1.86-1.624,3.035c-0.896,1.18-1.861,2.098-2.895,2.756c-1.038,0.659-3.181,1.86-6.43,3.602
		c-3.247,1.744-6.85,3.58-10.805,5.509c-3.956,1.932-7.911,3.722-11.866,5.369c-3.955,1.648-7.157,2.753-9.604,3.318
		c-2.543,0.564-4.711,0.564-6.498,0c-1.791-0.565-3.229-1.461-4.31-2.684c-1.083-1.223-1.812-2.614-2.188-4.169
		c-0.376-1.552-0.426-3.034-0.143-4.448c0.283-1.412,0.826-3.152,1.625-5.226c0.799-2.069,1.837-4.238,3.107-6.497
		c1.271-2.262,2.729-4.522,4.379-6.781c1.646-2.261,3.412-4.284,5.299-6.075c1.786-1.694,3.507-3.059,5.155-4.096
		c1.646-1.035,3.153-1.788,4.521-2.26c1.362-0.47,2.588-0.777,3.671-0.919c1.083-0.14,2.001-0.162,2.756-0.07
		c0.94,0.096,1.979,0.543,3.107,1.341c1.13,0.803,2.188,1.792,3.178,2.968c0.99,1.178,1.839,2.521,2.543,4.025
		c0.705,1.508,1.153,2.966,1.344,4.381c0.091,1.411-0.309,2.776-1.202,4.094c-0.896,1.322-2.049,2.544-3.461,3.675
		c-1.412,1.129-2.945,2.144-4.591,3.035c-1.649,0.897-3.178,1.675-4.591,2.331c-1.413,0.659-2.754,1.32-4.026,1.978
		c-1.271,0.662-2.471,1.086-3.602,1.271c-1.13,0.191-2.238,0.097-3.319-0.281c-1.083-0.375-2.099-1.317-3.037-2.825
		c-0.282,0.378-0.589,0.919-0.919,1.625c-0.331,0.706-0.447,1.391-0.353,2.047c0.094,0.661,0.518,1.228,1.271,1.696
		c0.752,0.472,2.023,0.659,3.813,0.564c1.788-0.093,4.097-0.494,6.923-1.2c2.825-0.708,5.813-1.6,8.97-2.685
		c3.153-1.079,6.308-2.329,9.464-3.743C312.417,87.488,315.22,86.077,317.669,84.665z M295.35,76.471
		c-2.167,0.85-3.839,1.767-5.015,2.754c-1.18,0.99-2.473,2.331-3.885,4.027c0.657-0.188,1.434-0.472,2.331-0.849
		c0.894-0.375,1.812-0.868,2.754-1.482c0.94-0.612,1.766-1.294,2.472-2.048C294.715,78.119,295.16,77.32,295.35,76.471z"/>
	<path fill="#FF8A89" d="M362.023,14.176c1.035,0.566,1.906,1.507,2.613,2.826c0.707,1.32,0.824,2.355,0.354,3.108
		c-0.19,0.282-1.038,1.719-2.543,4.308c-1.506,2.591-3.39,5.932-5.648,10.03c-2.262,4.096-4.782,8.711-7.559,13.842
		c-2.778,5.134-5.488,10.313-8.123,15.538c-2.639,5.228-5.062,10.291-7.275,15.186c-2.214,4.898-3.933,9.135-5.157,12.714
		c2.544-3.014,5.651-6.026,9.325-9.041c3.673-3.013,7.368-5.721,11.089-8.123c3.719-2.401,7.203-4.33,10.453-5.792
		c3.247-1.459,5.72-2.14,7.414-2.048c3.297,0.189,5.559,1.413,6.781,3.673c1.223,2.259,0.94,5.417-0.847,9.463
		c-1.885,4.052-3.016,6.993-3.39,8.829c-0.377,1.838,0.517,2.425,2.684,1.766c1.035-0.281,2.423-0.869,4.167-1.766
		c1.742-0.893,3.554-1.883,5.438-2.966c1.883-1.083,3.743-2.166,5.581-3.249c1.835-1.081,3.364-2.048,4.589-2.896
		c1.223-0.754,2.001-0.895,2.332-0.424c0.328,0.472,0.233,1.341-0.284,2.612c-0.519,1.272-1.437,2.827-2.753,4.66
		c-1.319,1.838-3.062,3.746-5.228,5.723c-2.169,1.979-4.215,3.794-6.144,5.438c-1.932,1.65-3.793,3.086-5.581,4.309
		c-1.788,1.225-3.58,2.098-5.367,2.614c-1.79,0.518-3.674,0.635-5.65,0.353c-1.979-0.282-3.51-1.223-4.591-2.826
		c-1.083-1.599-1.79-3.483-2.119-5.649c-0.33-2.164-0.261-4.496,0.214-6.992c0.469-2.494,1.316-4.779,2.541-6.852
		c-0.565-0.374-1.673-0.234-3.319,0.424c-1.651,0.659-3.604,1.696-5.864,3.108c-2.259,1.411-4.66,3.157-7.201,5.227
		c-2.544,2.073-4.993,4.378-7.349,6.922c-4.711,5.084-8.64,9.132-11.794,12.147c-3.155,3.012-5.72,4.425-7.698,4.238
		c-1.033-0.097-1.978-0.801-2.826-2.119c-0.847-1.321-1.529-2.825-2.047-4.521c-0.517-1.694-0.799-3.412-0.849-5.155
		c-0.046-1.741,0.213-3.129,0.779-4.167c0.376-0.658,1.246-2.306,2.612-4.945c1.365-2.635,3.015-5.812,4.944-9.533
		c1.929-3.72,4-7.769,6.214-12.149c2.212-4.378,4.378-8.617,6.499-12.713c2.118-4.096,4.096-7.862,5.933-11.301
		c1.835-3.437,3.271-6.096,4.309-7.981c1.601-2.825,3.108-5.625,4.519-8.404c1.413-2.777,2.66-5.343,3.743-7.699
		c1.083-2.352,1.98-4.33,2.687-5.932c0.706-1.6,1.15-2.685,1.34-3.249c0.471-1.036,1.273-1.766,2.402-2.189
		C357.503,12.129,359.386,12.67,362.023,14.176z"/>
	<path fill="#FF8A89" d="M411.039,65.877c0.564,0.472,1.599,1.32,3.107,2.543c1.506,1.225,2.989,2.778,4.45,4.661
		c1.459,1.884,2.611,4.051,3.461,6.498c0.847,2.449,0.892,5.086,0.142,7.909c-0.756,2.827-2.12,5.439-4.098,7.841
		c-1.978,2.402-4.237,4.428-6.78,6.074c-2.542,1.648-5.205,2.825-7.98,3.532c-2.78,0.705-5.298,0.823-7.558,0.354
		c-2.261-0.472-4.004-1.461-5.227-2.968c-1.226-1.504-2.024-3.225-2.401-5.156c-0.375-1.93-0.354-3.861,0.069-5.791
		c0.425-1.928,1.106-3.553,2.05-4.874c0.941-1.317,2.119-2.896,3.53-4.732c1.412-1.837,2.919-3.625,4.521-5.366
		c1.601-1.743,3.179-3.25,4.731-4.521c1.556-1.271,2.989-2.049,4.311-2.332l1.552-0.423c-0.094-0.188-0.165-0.54-0.211-1.06
		c-0.049-0.517,0-1.011,0.141-1.483c0.142-0.47,0.4-0.799,0.777-0.989C410.001,65.407,410.474,65.501,411.039,65.877z
		 M401.856,91.587c-0.094,0.471,0.142,0.659,0.706,0.563c0.566-0.093,1.295-0.352,2.189-0.776c0.895-0.423,1.813-1.013,2.756-1.766
		c0.94-0.753,1.741-1.601,2.401-2.543c0.471-0.658,0.848-1.6,1.13-2.824s0.423-2.543,0.423-3.957
		c-1.037,0.942-2.097,1.978-3.179,3.108c-1.082,1.13-2.097,2.261-3.037,3.392c-0.941,1.128-1.718,2.117-2.329,2.966
		C402.303,90.597,401.949,91.209,401.856,91.587z M447.626,63.334c0.564,0.472,1.599,1.201,3.108,2.189
		c1.503,0.989,2.986,2.285,4.447,3.885c1.46,1.602,2.613,3.581,3.46,5.933c0.85,2.355,0.895,5.134,0.142,8.335
		c-0.754,3.201-2.119,6.238-4.095,9.11c-1.978,2.875-4.239,5.321-6.781,7.346c-2.543,2.027-5.204,3.51-7.98,4.45
		c-2.78,0.942-5.298,1.129-7.559,0.564c-2.449-0.374-4.285-1.505-5.507-3.392c-1.228-1.881-2.004-4-2.332-6.355
		c-0.332-2.353-0.26-4.708,0.212-7.063c0.469-2.353,1.177-4.284,2.12-5.791c0.938-1.504,2.118-3.083,3.529-4.731
		c1.414-1.646,2.918-3.178,4.521-4.592c1.599-1.412,3.178-2.635,4.73-3.673c1.555-1.034,2.99-1.694,4.31-1.977l1.554-0.565
		c-0.095-0.187-0.166-0.565-0.212-1.129c-0.048-0.565,0-1.106,0.143-1.625c0.14-0.516,0.397-0.918,0.774-1.201
		C446.588,62.769,447.061,62.864,447.626,63.334z M437.172,93.422c0.282,0.473,0.918,0.591,1.906,0.353
		c0.988-0.232,2.07-0.753,3.25-1.553c1.176-0.8,2.307-1.884,3.389-3.249c1.084-1.363,1.909-2.989,2.474-4.873
		c0.092-0.375,0.233-0.777,0.424-1.201c0.188-0.424,0.28-0.894,0.28-1.413c0-0.517-0.093-1.151-0.28-1.906
		c-0.19-0.754-0.565-1.696-1.131-2.825c-1.038,1.037-2.354,2.26-3.954,3.673c-1.604,1.411-3.039,2.896-4.31,4.449
		c-1.271,1.552-2.189,3.061-2.755,4.521S436.134,92.199,437.172,93.422z"/>
	<path fill="#FF8A89" d="M478.55,75.767l-0.401,1.305c-2.634,6.216-10.828,25.512-12.664,29.137
		c-1.837,3.623-3.552,5.344-5.157,5.156c-1.035-0.095-1.881-0.707-2.543-1.835c-0.655-1.132-1.15-2.475-1.481-4.028
		c-0.33-1.554-0.447-3.13-0.354-4.731c0.094-1.601,0.424-2.918,0.989-3.954c0.376-0.659,1.178-2.238,2.4-4.734
		c1.227-2.493,2.729-5.554,4.52-9.182c1.789-3.623,3.743-7.627,5.863-12.006c2.119-4.379,4.26-8.781,6.428-13.208
		c2.165-4.425,4.259-8.709,6.286-12.854c2.023-4.143,3.835-7.77,5.438-10.877c2.917-5.743,4.967-10.687,6.145-14.832
		c1.176-4.143,2-6.731,2.473-7.77c0.469-1.036,1.555-1.742,3.248-2.119c1.694-0.376,3.906,0.189,6.641,1.695
		c1.034,0.565,1.907,1.507,2.614,2.826c0.704,1.319,0.82,2.354,0.352,3.107c-0.188,0.19-0.847,1.272-1.978,3.249
		c-1.131,1.979-2.567,4.521-4.309,7.628c-1.743,3.108-3.72,6.639-5.934,10.595c-2.213,3.955-4.429,8.075-6.64,12.359
		c-2.212,4.287-4.376,8.594-6.496,12.925C481.869,67.951,480.056,72.001,478.55,75.767"/>
	<path fill="#FF8A89" d="M527.823,55.587c0,0-27.514,10.663-37.881,21.029c-10.367,10.365-2.536,16.704-2.536,16.704
		c7.606,8.5,24.161-1.64,24.161-1.64c-6.712-0.449-9.993-6.266-9.993-6.266c9.546,4.177,24.609-2.981,24.609-2.981
		c-4.623,7.457-13.423,13.422-13.423,13.422s-19.687,15.659-32.215,0.896c-12.527-14.766,4.027-26.995,4.027-26.995L522.9,42.911
		c0,0,4.922-3.877,9.546-4.325C537.071,38.139,532.298,54.544,527.823,55.587z"/>
</g>
</svg>
